<?xml version="1.0" encoding="UTF-8" standalone="no"?>
<!-- Created with Inkscape (http://www.inkscape.org/) -->

<svg
   xmlns:dc="http://purl.org/dc/elements/1.1/"
   xmlns:cc="http://creativecommons.org/ns#"
   xmlns:rdf="http://www.w3.org/1999/02/22-rdf-syntax-ns#"
   xmlns:svg="http://www.w3.org/2000/svg"
   xmlns="http://www.w3.org/2000/svg"
   xmlns:sodipodi="http://sodipodi.sourceforge.net/DTD/sodipodi-0.dtd"
   xmlns:inkscape="http://www.inkscape.org/namespaces/inkscape"
   id="svg2"
   version="1.1"
   inkscape:version="0.48.5 r10040"
   width="480"
   height="222.5"
   xml:space="preserve"
   sodipodi:docname="Oficina-elementos-2.ai"><metadata
     id="metadata8"><rdf:RDF><cc:Work
         rdf:about=""><dc:format>image/svg+xml</dc:format><dc:type
           rdf:resource="http://purl.org/dc/dcmitype/StillImage" /><dc:title></dc:title></cc:Work></rdf:RDF></metadata><defs
     id="defs6"><clipPath
       clipPathUnits="userSpaceOnUse"
       id="clipPath16"><path
         d="M 0,178 384,178 384,0 0,0 0,178 z"
         id="path18" /></clipPath></defs><sodipodi:namedview
     pagecolor="#ffffff"
     bordercolor="#666666"
     borderopacity="1"
     objecttolerance="10"
     gridtolerance="10"
     guidetolerance="10"
     inkscape:pageopacity="0"
     inkscape:pageshadow="2"
     inkscape:window-width="640"
     inkscape:window-height="480"
     id="namedview4"
     showgrid="false"
     inkscape:zoom="0.89791667"
     inkscape:cx="240"
     inkscape:cy="111.25"
     inkscape:window-x="0"
     inkscape:window-y="31"
     inkscape:window-maximized="0"
     inkscape:current-layer="g10" /><g
     id="g10"
     inkscape:groupmode="layer"
     inkscape:label="Oficina-elementos-2"
     transform="matrix(1.25,0,0,-1.25,0,222.5)"><g
       id="g12"><g
         id="g14"
         clip-path="url(#clipPath16)"><g
           id="g20"
           transform="translate(85.4274,137.5896)"><path
             d="M 0,0 -0.662,0 C -2.274,0 -3.58,1.307 -3.58,2.918 l 0,11.108 6.498,0 0,-11.108 C 2.918,1.307 1.612,0 0,0"
             style="fill:#f0f0f0;fill-opacity:1;fill-rule:nonzero;stroke:none"
             id="path22" /></g><path
           d="m 88.346,147.387 -6.498,0 0,-5.441 6.498,0 0,5.441 z"
           style="fill:#bebebe;fill-opacity:1;fill-rule:nonzero;stroke:none"
           id="path24" /><g
           id="g26"
           transform="translate(85.0964,151.6158)"><path
             d="m 0,0 -6.677,0 -40.442,-122.445 6.676,0 L 0,0 z"
             style="fill:#f0f0f0;fill-opacity:1;fill-rule:nonzero;stroke:none"
             id="path28" /></g><g
           id="g30"
           transform="translate(85.0964,151.6158)"><path
             d="m 0,0 6.677,0 40.442,-122.445 -6.676,0 L 0,0 z"
             style="fill:#f0f0f0;fill-opacity:1;fill-rule:nonzero;stroke:none"
             id="path32" /></g><path
           d="m 117.242,64.374 -64.292,0 0,4.651 64.292,0 0,-4.651 z"
           style="fill:#f0f0f0;fill-opacity:1;fill-rule:nonzero;stroke:none"
           id="path34" /><g
           id="g36"
           transform="translate(77.6576,146.1872)"><path
             d="m 0,0 14.868,0.029 38.659,-117.045 1.031,0 -40.443,122.445 -13.353,0 -40.442,-122.445 1.03,0 L 0,0 z"
             style="fill:#a3a4a6;fill-opacity:1;fill-rule:nonzero;stroke:none"
             id="path38" /></g><path
           d="m 352.309,147.387 -314.331,0 0,8.574 314.331,0 0,-8.574 z"
           style="fill:#f0f0f0;fill-opacity:1;fill-rule:nonzero;stroke:none"
           id="path40" /><path
           d="m 352.309,154.156 -314.331,0 0,1.806 314.331,0 0,-1.806 z"
           style="fill:#ecf0e7;fill-opacity:1;fill-rule:nonzero;stroke:none"
           id="path42" /><path
           d="m 352.309,147.387 -314.331,0 0,0.804 314.331,0 0,-0.804 z"
           style="fill:#8b8b8b;fill-opacity:1;fill-rule:nonzero;stroke:none"
           id="path44" /><g
           id="g46"
           transform="translate(113.4062,65.9045)"><path
             d="m 0,0 -1.031,3.121 -54.558,0 L -56.62,0 0,0 z"
             style="fill:#d7d7d7;fill-opacity:1;fill-rule:nonzero;stroke:none"
             id="path48" /></g><path
           d="m 282.926,28.817 68.621,0 0,118.216 -68.621,0 0,-118.216 z"
           style="fill:#f0f0f0;fill-opacity:1;fill-rule:nonzero;stroke:none"
           id="path50" /><path
           d="m 351.547,147.033 -68.621,0 0,-1.171 68.621,0 0,1.171 z"
           style="fill:#8b8b8b;fill-opacity:1;fill-rule:nonzero;stroke:none"
           id="path52" /><path
           d="m 286.392,143.912 61.689,0 0,-111.975 -61.689,0 0,111.975 z"
           style="fill:#a3a4a6;fill-opacity:1;fill-rule:nonzero;stroke:none"
           id="path54" /><g
           id="g56"
           transform="translate(338.1497,87.2171)"><path
             d="m 0,0 -1.374,-1.99 c -0.353,-0.511 -0.974,-0.822 -1.643,-0.822 l -35.551,0 c -0.669,0 -1.291,0.311 -1.644,0.822 l -1.373,1.99 -9.851,0 0,-26.746 61.286,0 L 9.85,0 0,0 z"
             style="fill:#f0f0f0;fill-opacity:1;fill-rule:nonzero;stroke:none"
             id="path58" /></g><g
           id="g60"
           transform="translate(345.0184,87.2171)"><path
             d="m 0,0 0,-25.672 -58.305,0 0,-1.074 61.287,0 L 2.982,0 0,0 z"
             style="fill:#8b8b8b;fill-opacity:1;fill-rule:nonzero;stroke:none"
             id="path62" /></g><g
           id="g64"
           transform="translate(338.2072,60)"><path
             d="m 0,0 -1.371,-1.985 c -0.352,-0.511 -0.972,-0.821 -1.64,-0.821 l -35.475,0 c -0.668,0 -1.288,0.31 -1.641,0.821 l -1.37,1.985 -9.83,0 0,-26.689 61.156,0 L 9.829,0 0,0 z"
             style="fill:#f0f0f0;fill-opacity:1;fill-rule:nonzero;stroke:none"
             id="path66" /></g><g
           id="g68"
           transform="translate(345.0614,60)"><path
             d="m 0,0 0,-25.618 -58.181,0 0,-1.071 61.156,0 L 2.975,0 0,0 z"
             style="fill:#8b8b8b;fill-opacity:1;fill-rule:nonzero;stroke:none"
             id="path70" /></g><g
           id="g72"
           transform="translate(347.2572,129.1212)"><path
             d="m 0,0 0,10.136 c 0,1.777 -1.192,3.219 -2.66,3.219 l -54.998,0 c -1.469,0 -2.66,-1.442 -2.66,-3.219 L -60.318,0 0,0 z"
             style="fill:#868686;fill-opacity:1;fill-rule:nonzero;stroke:none"
             id="path74" /></g><g
           id="g76"
           transform="translate(345.688,140.8634)"><path
             d="m 0,0 -57.179,0 -9.004,-19.124 75.187,0 L 0,0 z"
             style="fill:#b2b2b0;fill-opacity:1;fill-rule:nonzero;stroke:none"
             id="path78" /></g><g
           id="g80"
           transform="translate(343.6602,139.4073)"><path
             d="m 0,0 -53.123,0 -8.206,-16.211 69.534,0 L 0,0 z"
             style="fill:#868686;fill-opacity:1;fill-rule:nonzero;stroke:none"
             id="path82" /></g><path
           d="m 343.66,139.407 -53.123,0 0,-16.211 53.123,0 0,16.211 z"
           style="fill:#6d6d6c;fill-opacity:1;fill-rule:nonzero;stroke:none"
           id="path84" /><g
           id="g86"
           transform="translate(342.6371,121.7802)"><path
             d="m 0,0 -1.681,-2.435 c -0.432,-0.626 -1.193,-1.007 -2.012,-1.007 l -43.507,0 c -0.819,0 -1.58,0.381 -2.012,1.007 L -50.893,0 l -12.055,0 0,-32.732 75.003,0 L 12.055,0 0,0 z"
             style="fill:#f0f0f0;fill-opacity:1;fill-rule:nonzero;stroke:none"
             id="path88" /></g></g></g></g></svg>