<?xml version="1.0" encoding="UTF-8" standalone="no"?>
<!-- Created with Inkscape (http://www.inkscape.org/) -->

<svg
   xmlns:dc="http://purl.org/dc/elements/1.1/"
   xmlns:cc="http://creativecommons.org/ns#"
   xmlns:rdf="http://www.w3.org/1999/02/22-rdf-syntax-ns#"
   xmlns:svg="http://www.w3.org/2000/svg"
   xmlns="http://www.w3.org/2000/svg"
   xmlns:sodipodi="http://sodipodi.sourceforge.net/DTD/sodipodi-0.dtd"
   xmlns:inkscape="http://www.inkscape.org/namespaces/inkscape"
   id="svg2"
   version="1.1"
   inkscape:version="0.48.5 r10040"
   width="382.5"
   height="269.16625"
   xml:space="preserve"
   sodipodi:docname="Oficina-elementos-1.ai"><metadata
     id="metadata8"><rdf:RDF><cc:Work
         rdf:about=""><dc:format>image/svg+xml</dc:format><dc:type
           rdf:resource="http://purl.org/dc/dcmitype/StillImage" /><dc:title></dc:title></cc:Work></rdf:RDF></metadata><defs
     id="defs6"><clipPath
       clipPathUnits="userSpaceOnUse"
       id="clipPath118"><path
         d="m 0,215.333 306,0 L 306,0 0,0 0,215.333 z"
         id="path120" /></clipPath><clipPath
       clipPathUnits="userSpaceOnUse"
       id="clipPath126"><path
         d="m 191.886,164.218 28.993,0 0,-36.937 -28.993,0 0,36.937 z"
         id="path128" /></clipPath><clipPath
       clipPathUnits="userSpaceOnUse"
       id="clipPath150"><path
         d="m 0,215.333 306,0 L 306,0 0,0 0,215.333 z"
         id="path152" /></clipPath><clipPath
       clipPathUnits="userSpaceOnUse"
       id="clipPath182"><path
         d="m 162.726,126.192 28.992,0 0,-36.9365 -28.992,0 0,36.9365 z"
         id="path184" /></clipPath><clipPath
       clipPathUnits="userSpaceOnUse"
       id="clipPath226"><path
         d="m 146.198,153.06 19.037,0 0,-19.037 -19.037,0 0,19.037 z"
         id="path228" /></clipPath><clipPath
       clipPathUnits="userSpaceOnUse"
       id="clipPath302"><path
         d="m 121.62,99.3673 19.037,0 0,-19.0377 -19.037,0 0,19.0377 z"
         id="path304" /></clipPath><clipPath
       clipPathUnits="userSpaceOnUse"
       id="clipPath326"><path
         d="m 118.65,107.121 16.998,0 0,-17.4407 -16.998,0 0,17.4407 z"
         id="path328" /></clipPath></defs><sodipodi:namedview
     pagecolor="#ffffff"
     bordercolor="#666666"
     borderopacity="1"
     objecttolerance="10"
     gridtolerance="10"
     guidetolerance="10"
     inkscape:pageopacity="0"
     inkscape:pageshadow="2"
     inkscape:window-width="640"
     inkscape:window-height="480"
     id="namedview4"
     showgrid="false"
     inkscape:zoom="0.87678151"
     inkscape:cx="191.25"
     inkscape:cy="134.58313"
     inkscape:window-x="765"
     inkscape:window-y="274"
     inkscape:window-maximized="0"
     inkscape:current-layer="g10" /><g
     id="g10"
     inkscape:groupmode="layer"
     inkscape:label="Oficina-elementos-1"
     transform="matrix(1.25,0,0,-1.25,0,269.16625)"><path
       d="m 30.186,197.092 244.825,0 0,-172.45 -244.825,0 0,172.45 z"
       style="fill:#c6bdb1;fill-opacity:1;fill-rule:nonzero;stroke:none"
       id="path12" /><path
       d="m 31.956,197.092 244.825,0 0,-169.555 -244.825,0 0,169.555 z"
       style="fill:#7e5238;fill-opacity:1;fill-rule:nonzero;stroke:none"
       id="path14" /><path
       d="m 38.595,190.889 231.982,0 0,-157.149 -231.982,0 0,157.149 z"
       style="fill:#e7dfd1;fill-opacity:1;fill-rule:nonzero;stroke:none"
       id="path16" /><path
       d="m 114.67,164.008 -24.813,0 0,24.813 24.813,0 0,-24.813 z"
       style="fill:#4f8257;fill-opacity:1;fill-rule:nonzero;stroke:none"
       id="path18" /><path
       d="m 140.31,164.008 -24.813,0 0,24.813 24.813,0 0,-24.813 z"
       style="fill:#4f8257;fill-opacity:1;fill-rule:nonzero;stroke:none"
       id="path20" /><path
       d="m 165.95,164.008 -24.813,0 0,24.813 24.813,0 0,-24.813 z"
       style="fill:#4f8257;fill-opacity:1;fill-rule:nonzero;stroke:none"
       id="path22" /><path
       d="m 191.59,164.008 -24.813,0 0,24.813 24.813,0 0,-24.813 z"
       style="fill:#4f8257;fill-opacity:1;fill-rule:nonzero;stroke:none"
       id="path24" /><path
       d="m 217.23,164.008 -24.813,0 0,24.813 24.813,0 0,-24.813 z"
       style="fill:#4f8257;fill-opacity:1;fill-rule:nonzero;stroke:none"
       id="path26" /><path
       d="m 242.87,164.008 -24.813,0 0,24.813 24.813,0 0,-24.813 z"
       style="fill:#4f8257;fill-opacity:1;fill-rule:nonzero;stroke:none"
       id="path28" /><path
       d="m 268.51,164.008 -24.813,0 0,24.813 24.813,0 0,-24.813 z"
       style="fill:#4f8257;fill-opacity:1;fill-rule:nonzero;stroke:none"
       id="path30" /><path
       d="m 114.67,138.368 -24.813,0 0,24.813 24.813,0 0,-24.813 z"
       style="fill:#629f6c;fill-opacity:1;fill-rule:nonzero;stroke:none"
       id="path32" /><path
       d="m 140.31,138.368 -24.813,0 0,24.813 24.813,0 0,-24.813 z"
       style="fill:#558b5d;fill-opacity:1;fill-rule:nonzero;stroke:none"
       id="path34" /><path
       d="m 165.95,138.368 -24.813,0 0,24.813 24.813,0 0,-24.813 z"
       style="fill:#47764f;fill-opacity:1;fill-rule:nonzero;stroke:none"
       id="path36" /><path
       d="m 191.59,138.368 -24.813,0 0,24.813 24.813,0 0,-24.813 z"
       style="fill:#629f6c;fill-opacity:1;fill-rule:nonzero;stroke:none"
       id="path38" /><path
       d="m 217.23,138.368 -24.813,0 0,24.813 24.813,0 0,-24.813 z"
       style="fill:#4f8257;fill-opacity:1;fill-rule:nonzero;stroke:none"
       id="path40" /><path
       d="m 242.87,138.368 -24.813,0 0,24.813 24.813,0 0,-24.813 z"
       style="fill:#5b9565;fill-opacity:1;fill-rule:nonzero;stroke:none"
       id="path42" /><path
       d="m 268.51,138.368 -24.813,0 0,24.813 24.813,0 0,-24.813 z"
       style="fill:#47764f;fill-opacity:1;fill-rule:nonzero;stroke:none"
       id="path44" /><path
       d="m 114.67,112.728 -24.813,0 0,24.813 24.813,0 0,-24.813 z"
       style="fill:#47764f;fill-opacity:1;fill-rule:nonzero;stroke:none"
       id="path46" /><path
       d="m 140.31,112.728 -24.813,0 0,24.813 24.813,0 0,-24.813 z"
       style="fill:#629f6c;fill-opacity:1;fill-rule:nonzero;stroke:none"
       id="path48" /><path
       d="m 165.95,112.728 -24.813,0 0,24.813 24.813,0 0,-24.813 z"
       style="fill:#558b5d;fill-opacity:1;fill-rule:nonzero;stroke:none"
       id="path50" /><path
       d="m 191.59,112.728 -24.813,0 0,24.813 24.813,0 0,-24.813 z"
       style="fill:#4f8257;fill-opacity:1;fill-rule:nonzero;stroke:none"
       id="path52" /><path
       d="m 217.23,112.728 -24.813,0 0,24.813 24.813,0 0,-24.813 z"
       style="fill:#47764f;fill-opacity:1;fill-rule:nonzero;stroke:none"
       id="path54" /><path
       d="m 242.87,112.728 -24.813,0 0,24.813 24.813,0 0,-24.813 z"
       style="fill:#558b5d;fill-opacity:1;fill-rule:nonzero;stroke:none"
       id="path56" /><path
       d="m 268.51,112.728 -24.813,0 0,24.813 24.813,0 0,-24.813 z"
       style="fill:#4f8257;fill-opacity:1;fill-rule:nonzero;stroke:none"
       id="path58" /><path
       d="m 114.67,87.088 -24.813,0 0,24.813 24.813,0 0,-24.813 z"
       style="fill:#51865a;fill-opacity:1;fill-rule:nonzero;stroke:none"
       id="path60" /><path
       d="m 140.31,87.088 -24.813,0 0,24.813 24.813,0 0,-24.813 z"
       style="fill:#558b5d;fill-opacity:1;fill-rule:nonzero;stroke:none"
       id="path62" /><path
       d="m 165.95,87.088 -24.813,0 0,24.813 24.813,0 0,-24.813 z"
       style="fill:#4f8257;fill-opacity:1;fill-rule:nonzero;stroke:none"
       id="path64" /><path
       d="m 191.59,87.088 -24.813,0 0,24.813 24.813,0 0,-24.813 z"
       style="fill:#629f6c;fill-opacity:1;fill-rule:nonzero;stroke:none"
       id="path66" /><path
       d="m 217.23,87.088 -24.813,0 0,24.813 24.813,0 0,-24.813 z"
       style="fill:#47764f;fill-opacity:1;fill-rule:nonzero;stroke:none"
       id="path68" /><path
       d="m 242.87,87.088 -24.813,0 0,24.813 24.813,0 0,-24.813 z"
       style="fill:#4f8257;fill-opacity:1;fill-rule:nonzero;stroke:none"
       id="path70" /><path
       d="m 268.51,87.088 -24.813,0 0,24.813 24.813,0 0,-24.813 z"
       style="fill:#64a26f;fill-opacity:1;fill-rule:nonzero;stroke:none"
       id="path72" /><path
       d="m 114.67,61.448 -24.813,0 0,24.813 24.813,0 0,-24.813 z"
       style="fill:#4f8257;fill-opacity:1;fill-rule:nonzero;stroke:none"
       id="path74" /><path
       d="m 140.31,61.448 -24.813,0 0,24.813 24.813,0 0,-24.813 z"
       style="fill:#558b5d;fill-opacity:1;fill-rule:nonzero;stroke:none"
       id="path76" /><path
       d="m 165.95,61.448 -24.813,0 0,24.813 24.813,0 0,-24.813 z"
       style="fill:#47764f;fill-opacity:1;fill-rule:nonzero;stroke:none"
       id="path78" /><path
       d="m 191.59,61.448 -24.813,0 0,24.813 24.813,0 0,-24.813 z"
       style="fill:#4f8257;fill-opacity:1;fill-rule:nonzero;stroke:none"
       id="path80" /><path
       d="m 217.23,61.448 -24.813,0 0,24.813 24.813,0 0,-24.813 z"
       style="fill:#558b5d;fill-opacity:1;fill-rule:nonzero;stroke:none"
       id="path82" /><path
       d="m 242.87,61.448 -24.813,0 0,24.813 24.813,0 0,-24.813 z"
       style="fill:#629f6c;fill-opacity:1;fill-rule:nonzero;stroke:none"
       id="path84" /><path
       d="m 268.51,61.448 -24.813,0 0,24.813 24.813,0 0,-24.813 z"
       style="fill:#47764f;fill-opacity:1;fill-rule:nonzero;stroke:none"
       id="path86" /><path
       d="m 114.67,35.808 -24.813,0 0,24.813 24.813,0 0,-24.813 z"
       style="fill:#47764f;fill-opacity:1;fill-rule:nonzero;stroke:none"
       id="path88" /><path
       d="m 140.31,35.808 -24.813,0 0,24.813 24.813,0 0,-24.813 z"
       style="fill:#558b5d;fill-opacity:1;fill-rule:nonzero;stroke:none"
       id="path90" /><path
       d="m 165.95,35.808 -24.813,0 0,24.813 24.813,0 0,-24.813 z"
       style="fill:#4f8257;fill-opacity:1;fill-rule:nonzero;stroke:none"
       id="path92" /><path
       d="m 191.59,35.808 -24.813,0 0,24.813 24.813,0 0,-24.813 z"
       style="fill:#629f6c;fill-opacity:1;fill-rule:nonzero;stroke:none"
       id="path94" /><path
       d="m 217.23,35.808 -24.813,0 0,24.813 24.813,0 0,-24.813 z"
       style="fill:#47764f;fill-opacity:1;fill-rule:nonzero;stroke:none"
       id="path96" /><path
       d="m 242.87,35.808 -24.813,0 0,24.813 24.813,0 0,-24.813 z"
       style="fill:#558b5d;fill-opacity:1;fill-rule:nonzero;stroke:none"
       id="path98" /><path
       d="m 268.51,35.808 -24.813,0 0,24.813 24.813,0 0,-24.813 z"
       style="fill:#4f8257;fill-opacity:1;fill-rule:nonzero;stroke:none"
       id="path100" /><path
       d="m 276.781,195.438 -244.825,0 0,1.654 244.825,0 0,-1.654 z"
       style="fill:#9f6949;fill-opacity:1;fill-rule:nonzero;stroke:none"
       id="path102" /><g
       id="g104"
       transform="translate(270.5776,90.141)"><path
         d="m 0,0 0,-56.401 -51.838,0 -5.702,-6.203 63.743,0 0,69.353 L 0,0 z"
         style="fill:#84563b;fill-opacity:1;fill-rule:nonzero;stroke:none"
         id="path106" /></g><path
       d="m 270.578,32.086 -231.982,0 0,1.654 231.982,0 0,-1.654 z"
       style="fill:#9f6949;fill-opacity:1;fill-rule:nonzero;stroke:none"
       id="path108" /><path
       d="m 270.578,189.235 -231.982,0 0,1.654 231.982,0 0,-1.654 z"
       style="fill:#ccc5b8;fill-opacity:1;fill-rule:nonzero;stroke:none"
       id="path110" /><path
       d="m 269.555,35.808 -229.042,0 0,153.013 229.042,0 0,-153.013 z"
       style="fill:#4f8257;fill-opacity:1;fill-rule:nonzero;stroke:none"
       id="path112" /><g
       id="g114"><g
         id="g116"
         clip-path="url(#clipPath118)"><g
           id="g122"><g
             id="g124" /><g
             id="g130"><g
               clip-path="url(#clipPath126)"
               opacity="0.199997"
               id="g132"><g
                 transform="translate(220.8789,131.1187)"
                 id="g134"><path
                   d="M 0,0 -23.614,-3.837 -28.993,29.262 -5.379,33.099 0,0 z"
                   style="fill:#000000;fill-opacity:1;fill-rule:nonzero;stroke:none"
                   id="path136" /></g></g></g></g></g></g><g
       id="g138"
       transform="translate(221.1738,132.0635)"><path
         d="M 0,0 -23.614,-3.837 -28.993,29.262 -5.379,33.099 0,0 z"
         style="fill:#e7dfd1;fill-opacity:1;fill-rule:nonzero;stroke:none"
         id="path140" /></g><g
       id="g142"
       transform="translate(196.6163,142.3086)"><path
         d="M 0,0 -2.912,17.919 18.081,21.33 20.993,3.411 0,0 z"
         style="fill:#cc9d32;fill-opacity:1;fill-rule:nonzero;stroke:none"
         id="path144" /></g><g
       id="g146"><g
         id="g148"
         clip-path="url(#clipPath150)"><g
           id="g154"
           transform="translate(198.5702,136.509)"><path
             d="M 0,0 C -0.213,0 -0.401,0.154 -0.437,0.372 -0.475,0.613 -0.312,0.84 -0.07,0.879 L 4.157,1.566 C 4.398,1.606 4.625,1.441 4.665,1.2 4.704,0.959 4.54,0.732 4.299,0.693 L 0.071,0.006 C 0.048,0.002 0.023,0 0,0"
             style="fill:#bdc4c8;fill-opacity:1;fill-rule:nonzero;stroke:none"
             id="path156" /></g><g
           id="g158"
           transform="translate(205.0143,137.5562)"><path
             d="M 0,0 C -0.213,0 -0.401,0.154 -0.437,0.371 -0.475,0.613 -0.312,0.84 -0.07,0.879 L 3.424,1.447 C 3.665,1.488 3.893,1.322 3.932,1.082 3.971,0.84 3.807,0.613 3.566,0.574 L 0.071,0.006 C 0.048,0.002 0.023,0 0,0"
             style="fill:#bdc4c8;fill-opacity:1;fill-rule:nonzero;stroke:none"
             id="path160" /></g><g
           id="g162"
           transform="translate(198.8498,134.7873)"><path
             d="m 0,0 c -0.213,0 -0.401,0.154 -0.437,0.371 -0.038,0.242 0.125,0.469 0.367,0.508 l 14.58,2.37 C 14.751,3.291 14.979,3.124 15.018,2.883 15.057,2.642 14.893,2.414 14.652,2.375 L 0.071,0.006 C 0.048,0.002 0.023,0 0,0"
             style="fill:#bdc4c8;fill-opacity:1;fill-rule:nonzero;stroke:none"
             id="path164" /></g><g
           id="g166"
           transform="translate(199.1299,133.0655)"><path
             d="M 0,0 C -0.213,0 -0.401,0.154 -0.437,0.372 -0.475,0.613 -0.312,0.84 -0.07,0.879 L 8.121,2.21 C 8.361,2.252 8.589,2.086 8.629,1.844 8.667,1.603 8.504,1.376 8.262,1.337 L 0.071,0.006 C 0.048,0.002 0.023,0 0,0"
             style="fill:#bdc4c8;fill-opacity:1;fill-rule:nonzero;stroke:none"
             id="path168" /></g><g
           id="g170"
           transform="translate(210.4751,138.4437)"><path
             d="M 0,0 C -0.213,0 -0.401,0.154 -0.437,0.372 -0.475,0.613 -0.312,0.84 -0.07,0.879 L 6.974,2.024 C 7.215,2.065 7.443,1.899 7.482,1.658 7.521,1.417 7.357,1.19 7.116,1.151 L 0.071,0.006 C 0.048,0.002 0.023,0 0,0"
             style="fill:#bdc4c8;fill-opacity:1;fill-rule:nonzero;stroke:none"
             id="path172" /></g><g
           id="g174"
           transform="translate(209.0686,134.6805)"><path
             d="M 0,0 C -0.213,0 -0.401,0.154 -0.437,0.371 -0.475,0.613 -0.312,0.84 -0.07,0.879 L 7.826,2.163 C 8.068,2.205 8.294,2.038 8.334,1.797 8.373,1.556 8.209,1.328 7.968,1.289 L 0.071,0.006 C 0.048,0.002 0.023,0 0,0"
             style="fill:#bdc4c8;fill-opacity:1;fill-rule:nonzero;stroke:none"
             id="path176" /></g><g
           id="g178"><g
             id="g180" /><g
             id="g186"><g
               clip-path="url(#clipPath182)"
               opacity="0.199997"
               id="g188"><g
                 transform="translate(191.7185,93.093)"
                 id="g190"><path
                   d="M 0,0 -23.614,-3.837 -28.993,29.262 -5.379,33.099 0,0 z"
                   style="fill:#000000;fill-opacity:1;fill-rule:nonzero;stroke:none"
                   id="path192" /></g></g></g></g><g
           id="g194"
           transform="translate(192.0134,94.0378)"><path
             d="M 0,0 -23.614,-3.837 -28.993,29.262 -5.379,33.099 0,0 z"
             style="fill:#e7dfd1;fill-opacity:1;fill-rule:nonzero;stroke:none"
             id="path196" /></g><g
           id="g198"
           transform="translate(167.4559,104.2829)"><path
             d="M 0,0 -2.912,17.919 18.081,21.33 20.993,3.411 0,0 z"
             style="fill:#2b3c49;fill-opacity:1;fill-rule:nonzero;stroke:none"
             id="path200" /></g><g
           id="g202"
           transform="translate(169.4099,98.4833)"><path
             d="M 0,0 C -0.213,0 -0.401,0.154 -0.437,0.372 -0.475,0.613 -0.312,0.84 -0.07,0.88 L 4.156,1.566 C 4.397,1.604 4.625,1.441 4.664,1.2 4.703,0.959 4.539,0.732 4.298,0.692 L 0.071,0.006 C 0.048,0.002 0.023,0 0,0"
             style="fill:#bdc4c8;fill-opacity:1;fill-rule:nonzero;stroke:none"
             id="path204" /></g><g
           id="g206"
           transform="translate(175.8535,99.5306)"><path
             d="m 0,0 c -0.214,0 -0.402,0.155 -0.437,0.373 -0.038,0.242 0.126,0.468 0.368,0.507 L 7.41,2.07 C 7.656,2.11 7.879,1.944 7.917,1.703 7.955,1.462 7.791,1.235 7.549,1.196 L 0.07,0.006 C 0.046,0.002 0.023,0 0,0"
             style="fill:#bdc4c8;fill-opacity:1;fill-rule:nonzero;stroke:none"
             id="path208" /></g><g
           id="g210"
           transform="translate(169.6895,96.7613)"><path
             d="M 0,0 C -0.214,0 -0.401,0.154 -0.437,0.372 -0.475,0.613 -0.312,0.84 -0.07,0.88 L 16.993,3.649 C 17.232,3.69 17.461,3.524 17.5,3.283 17.539,3.042 17.376,2.814 17.134,2.775 L 0.071,0.006 C 0.048,0.002 0.023,0 0,0"
             style="fill:#bdc4c8;fill-opacity:1;fill-rule:nonzero;stroke:none"
             id="path212" /></g><g
           id="g214"
           transform="translate(169.9696,95.0397)"><path
             d="M 0,0 C -0.213,0 -0.401,0.154 -0.437,0.372 -0.475,0.613 -0.312,0.84 -0.07,0.88 L 8.121,2.211 C 8.362,2.25 8.589,2.086 8.629,1.845 8.667,1.604 8.504,1.376 8.262,1.337 L 0.071,0.006 C 0.048,0.002 0.023,0 0,0"
             style="fill:#bdc4c8;fill-opacity:1;fill-rule:nonzero;stroke:none"
             id="path216" /></g><g
           id="g218"
           transform="translate(179.9083,96.655)"><path
             d="M 0,0 C -0.214,0 -0.401,0.154 -0.437,0.372 -0.475,0.613 -0.312,0.84 -0.07,0.88 L 3.354,1.436 C 3.594,1.475 3.823,1.311 3.862,1.07 3.901,0.829 3.737,0.601 3.496,0.562 L 0.071,0.006 C 0.048,0.002 0.023,0 0,0"
             style="fill:#bdc4c8;fill-opacity:1;fill-rule:nonzero;stroke:none"
             id="path220" /></g><g
           id="g222"><g
             id="g224" /><g
             id="g230"><g
               clip-path="url(#clipPath226)"
               opacity="0.199997"
               id="g232"><g
                 transform="translate(165.2353,136.2033)"
                 id="g234"><path
                   d="m 0,0 -16.857,-2.181 -2.181,16.858 16.857,2.18 L 0,0 z"
                   style="fill:#000000;fill-opacity:1;fill-rule:nonzero;stroke:none"
                   id="path236" /></g></g></g></g><g
           id="g238"
           transform="translate(165.9996,137.1947)"><path
             d="m 0,0 -16.857,-2.181 -2.181,16.858 16.857,2.18 L 0,0 z"
             style="fill:#4dcbd6;fill-opacity:1;fill-rule:nonzero;stroke:none"
             id="path240" /></g><g
           id="g242"
           transform="translate(164.334,150.0708)"><path
             d="M 0,0 -16.857,-2.181 -17.372,1.801 -0.515,3.981 0,0 z"
             style="fill:#45bac4;fill-opacity:1;fill-rule:nonzero;stroke:none"
             id="path244" /></g><path
           d="m 161.824,139.33 -16.998,0 0,17.44 16.998,0 0,-17.44 z"
           style="fill:#3a613f;fill-opacity:1;fill-rule:nonzero;stroke:none"
           id="path246" /><path
           d="m 162.267,139.773 -16.998,0 0,16.998 16.998,0 0,-16.998 z"
           style="fill:#ff6200;fill-opacity:1;fill-rule:nonzero;stroke:none"
           id="path248" /><path
           d="m 162.267,152.756 -16.998,0 0,4.014 16.998,0 0,-4.014 z"
           style="fill:#f65100;fill-opacity:1;fill-rule:nonzero;stroke:none"
           id="path250" /><g
           id="g252"
           transform="translate(151.4114,149.4839)"><path
             d="m 0,0 -3.43,0 c -0.245,0 -0.443,0.198 -0.443,0.443 0,0.244 0.198,0.442 0.443,0.442 l 3.43,0 C 0.244,0.885 0.443,0.687 0.443,0.443 0.443,0.198 0.244,0 0,0"
             style="fill:#2b3c49;fill-opacity:1;fill-rule:nonzero;stroke:none"
             id="path254" /></g><g
           id="g256"
           transform="translate(155.0076,149.4839)"><path
             d="m 0,0 -1.682,0 c -0.245,0 -0.443,0.198 -0.443,0.443 0,0.244 0.198,0.442 0.443,0.442 L 0,0.885 C 0.245,0.885 0.443,0.687 0.443,0.443 0.443,0.198 0.245,0 0,0"
             style="fill:#f3b700;fill-opacity:1;fill-rule:nonzero;stroke:none"
             id="path258" /></g><g
           id="g260"
           transform="translate(159.6921,149.4839)"><path
             d="m 0,0 -2.988,0 c -0.244,0 -0.442,0.198 -0.442,0.443 0,0.244 0.198,0.442 0.442,0.442 L 0,0.885 C 0.245,0.885 0.443,0.687 0.443,0.443 0.443,0.198 0.245,0 0,0"
             style="fill:#2b3c49;fill-opacity:1;fill-rule:nonzero;stroke:none"
             id="path262" /></g><g
           id="g264"
           transform="translate(157.4791,147.4451)"><path
             d="m 0,0 -9.498,0 c -0.244,0 -0.442,0.198 -0.442,0.443 0,0.244 0.198,0.442 0.442,0.442 L 0,0.885 C 0.245,0.885 0.443,0.687 0.443,0.443 0.443,0.198 0.245,0 0,0"
             style="fill:#2b3c49;fill-opacity:1;fill-rule:nonzero;stroke:none"
             id="path266" /></g><g
           id="g268"
           transform="translate(151.4114,145.4063)"><path
             d="m 0,0 -3.43,0 c -0.245,0 -0.443,0.198 -0.443,0.443 0,0.244 0.198,0.442 0.443,0.442 l 3.43,0 C 0.244,0.885 0.443,0.687 0.443,0.443 0.443,0.198 0.244,0 0,0"
             style="fill:#4dcbd6;fill-opacity:1;fill-rule:nonzero;stroke:none"
             id="path270" /></g><path
           d="m 109.31,117.177 -16.998,0 0,17.44 16.998,0 0,-17.44 z"
           style="fill:#3a613f;fill-opacity:1;fill-rule:nonzero;stroke:none"
           id="path272" /><path
           d="m 109.752,117.62 -16.998,0 0,16.998 16.998,0 0,-16.998 z"
           style="fill:#ffce00;fill-opacity:1;fill-rule:nonzero;stroke:none"
           id="path274" /><path
           d="m 109.752,130.603 -16.998,0 0,4.014 16.998,0 0,-4.014 z"
           style="fill:#f3b700;fill-opacity:1;fill-rule:nonzero;stroke:none"
           id="path276" /><g
           id="g278"
           transform="translate(102.527,127.3307)"><path
             d="m 0,0 -7.06,0 c -0.244,0 -0.443,0.198 -0.443,0.443 0,0.244 0.199,0.442 0.443,0.442 l 7.06,0 C 0.244,0.885 0.443,0.687 0.443,0.443 0.443,0.198 0.244,0 0,0"
             style="fill:#2b3c49;fill-opacity:1;fill-rule:nonzero;stroke:none"
             id="path280" /></g><g
           id="g282"
           transform="translate(107.3619,125.2919)"><path
             d="m 0,0 -11.895,0 c -0.244,0 -0.443,0.198 -0.443,0.443 0,0.244 0.199,0.442 0.443,0.442 L 0,0.885 C 0.244,0.885 0.443,0.687 0.443,0.443 0.443,0.198 0.244,0 0,0"
             style="fill:#2b3c49;fill-opacity:1;fill-rule:nonzero;stroke:none"
             id="path284" /></g><g
           id="g286"
           transform="translate(98.8971,123.2533)"><path
             d="m 0,0 -3.43,0 c -0.245,0 -0.443,0.198 -0.443,0.443 0,0.244 0.198,0.442 0.443,0.442 l 3.43,0 C 0.244,0.885 0.443,0.687 0.443,0.443 0.443,0.198 0.244,0 0,0"
             style="fill:#4dcbd6;fill-opacity:1;fill-rule:nonzero;stroke:none"
             id="path288" /></g><g
           id="g290"
           transform="translate(104.74,123.2533)"><path
             d="m 0,0 -0.811,0 c -0.245,0 -0.443,0.198 -0.443,0.443 0,0.244 0.198,0.442 0.443,0.442 L 0,0.885 C 0.244,0.885 0.443,0.687 0.443,0.443 0.443,0.198 0.244,0 0,0"
             style="fill:#f65100;fill-opacity:1;fill-rule:nonzero;stroke:none"
             id="path292" /></g><g
           id="g294"
           transform="translate(101.0321,121.5298)"><path
             d="m 0,0 -1.575,0 c -0.244,0 -0.443,0.198 -0.443,0.443 0,0.244 0.199,0.442 0.443,0.442 L 0,0.885 C 0.244,0.885 0.443,0.687 0.443,0.443 0.443,0.198 0.244,0 0,0"
             style="fill:#2b3c49;fill-opacity:1;fill-rule:nonzero;stroke:none"
             id="path296" /></g><g
           id="g298"><g
             id="g300" /><g
             id="g306"><g
               clip-path="url(#clipPath302)"
               opacity="0.199997"
               id="g308"><g
                 transform="translate(140.6574,82.5101)"
                 id="g310"><path
                   d="m 0,0 -16.857,-2.181 -2.181,16.858 16.857,2.18 L 0,0 z"
                   style="fill:#000000;fill-opacity:1;fill-rule:nonzero;stroke:none"
                   id="path312" /></g></g></g></g><g
           id="g314"
           transform="translate(141.4218,83.5016)"><path
             d="m 0,0 -16.857,-2.181 -2.181,16.858 16.857,2.18 L 0,0 z"
             style="fill:#4dcbd6;fill-opacity:1;fill-rule:nonzero;stroke:none"
             id="path316" /></g><g
           id="g318"
           transform="translate(139.7562,96.3776)"><path
             d="M 0,0 -16.857,-2.181 -17.372,1.801 -0.515,3.981 0,0 z"
             style="fill:#45bac4;fill-opacity:1;fill-rule:nonzero;stroke:none"
             id="path320" /></g><g
           id="g322"><g
             id="g324" /><g
             id="g330"><g
               clip-path="url(#clipPath326)"
               opacity="0.199997"
               id="g332"><path
                 d="m 135.648,89.68 -16.998,0 0,17.44 16.998,0 0,-17.44 z"
                 style="fill:#000000;fill-opacity:1;fill-rule:nonzero;stroke:none"
                 id="path334" /></g></g></g><path
           d="m 136.533,90.566 -16.998,0 0,16.998 16.998,0 0,-16.998 z"
           style="fill:#ffce00;fill-opacity:1;fill-rule:nonzero;stroke:none"
           id="path336" /><path
           d="m 136.533,103.549 -16.998,0 0,4.014 16.998,0 0,-4.014 z"
           style="fill:#f3b700;fill-opacity:1;fill-rule:nonzero;stroke:none"
           id="path338" /><g
           id="g340"
           transform="translate(129.3077,100.2762)"><path
             d="m 0,0 -7.06,0 c -0.244,0 -0.443,0.198 -0.443,0.443 0,0.244 0.199,0.442 0.443,0.442 l 7.06,0 C 0.244,0.885 0.443,0.687 0.443,0.443 0.443,0.198 0.244,0 0,0"
             style="fill:#2b3c49;fill-opacity:1;fill-rule:nonzero;stroke:none"
             id="path342" /></g><g
           id="g344"
           transform="translate(134.1426,98.2378)"><path
             d="m 0,0 -11.895,0 c -0.244,0 -0.443,0.198 -0.443,0.443 0,0.244 0.199,0.442 0.443,0.442 L 0,0.885 C 0.244,0.885 0.443,0.687 0.443,0.443 0.443,0.198 0.244,0 0,0"
             style="fill:#2b3c49;fill-opacity:1;fill-rule:nonzero;stroke:none"
             id="path346" /></g><g
           id="g348"
           transform="translate(125.6778,96.1989)"><path
             d="m 0,0 -3.43,0 c -0.245,0 -0.443,0.198 -0.443,0.443 0,0.244 0.198,0.442 0.443,0.442 l 3.43,0 C 0.244,0.885 0.443,0.687 0.443,0.443 0.443,0.198 0.244,0 0,0"
             style="fill:#4dcbd6;fill-opacity:1;fill-rule:nonzero;stroke:none"
             id="path350" /></g><g
           id="g352"
           transform="translate(131.5207,96.1989)"><path
             d="m 0,0 -0.811,0 c -0.245,0 -0.443,0.198 -0.443,0.443 0,0.244 0.198,0.442 0.443,0.442 L 0,0.885 C 0.244,0.885 0.443,0.687 0.443,0.443 0.443,0.198 0.244,0 0,0"
             style="fill:#f65100;fill-opacity:1;fill-rule:nonzero;stroke:none"
             id="path354" /></g><g
           id="g356"
           transform="translate(127.8128,94.4757)"><path
             d="m 0,0 -1.575,0 c -0.244,0 -0.443,0.198 -0.443,0.443 0,0.244 0.199,0.442 0.443,0.442 L 0,0.885 C 0.244,0.885 0.443,0.687 0.443,0.443 0.443,0.198 0.244,0 0,0"
             style="fill:#2b3c49;fill-opacity:1;fill-rule:nonzero;stroke:none"
             id="path358" /></g></g></g></g></svg>