<?xml version="1.0" encoding="UTF-8" standalone="no"?>
<!-- Created with Inkscape (http://www.inkscape.org/) -->

<svg
   xmlns:dc="http://purl.org/dc/elements/1.1/"
   xmlns:cc="http://creativecommons.org/ns#"
   xmlns:rdf="http://www.w3.org/1999/02/22-rdf-syntax-ns#"
   xmlns:svg="http://www.w3.org/2000/svg"
   xmlns="http://www.w3.org/2000/svg"
   xmlns:sodipodi="http://sodipodi.sourceforge.net/DTD/sodipodi-0.dtd"
   xmlns:inkscape="http://www.inkscape.org/namespaces/inkscape"
   width="210mm"
   height="297mm"
   viewBox="0 0 210 297"
   version="1.1"
   id="svg8"
   inkscape:version="0.92.1 r15371"
   sodipodi:docname="posit-cuadernolomo.svg">
  <defs
     id="defs2" />
  <sodipodi:namedview
     id="base"
     pagecolor="#ffffff"
     bordercolor="#666666"
     borderopacity="1.0"
     inkscape:pageopacity="0.0"
     inkscape:pageshadow="2"
     inkscape:zoom="1.1173077"
     inkscape:cx="1017.6224"
     inkscape:cy="456.31369"
     inkscape:document-units="mm"
     inkscape:current-layer="layer1"
     showgrid="false"
     inkscape:window-width="1920"
     inkscape:window-height="1028"
     inkscape:window-x="0"
     inkscape:window-y="24"
     inkscape:window-maximized="1" />
  <metadata
     id="metadata5">
    <rdf:RDF>
      <cc:Work
         rdf:about="">
        <dc:format>image/svg+xml</dc:format>
        <dc:type
           rdf:resource="http://purl.org/dc/dcmitype/StillImage" />
        <dc:title></dc:title>
      </cc:Work>
    </rdf:RDF>
  </metadata>
  <g
     inkscape:label="Capa 1"
     inkscape:groupmode="layer"
     id="layer1">
    <g
       id="g106"
       inkscape:export-xdpi="96"
       inkscape:export-ydpi="96">
      <path
         sodipodi:nodetypes="ccccccc"
         inkscape:connector-curvature="0"
         id="rect10"
         d="m 18.142857,108.76786 c 20.67493,-5.3538 128.161113,-2.09003 154.970243,0 5.97035,42.10997 -0.45699,91.2133 -0.45699,91.2133 l -6.75929,10.11443 -6.06965,8.32717 -141.684313,-0.0418 c 0,0 4.899941,-65.06817 0,-109.61309 z"
         style="fill:#ffcc00;stroke-width:0.26458332" />
      <flowRoot
         transform="matrix(0.55329039,0,0,0.55329039,-50.786937,-128.894)"
         style="font-style:normal;font-weight:normal;font-size:40px;line-height:1.25;font-family:sans-serif;letter-spacing:0px;word-spacing:0px;fill:#000000;fill-opacity:1;stroke:none"
         id="flowRoot12"
         xml:space="preserve"><flowRegion
           id="flowRegion14"><rect
             y="496.80539"
             x="165.71428"
             height="80"
             width="222.85715"
             id="rect16" /></flowRegion><flowPara
           style="font-style:normal;font-variant:normal;font-weight:normal;font-stretch:normal;font-family:Caveat;-inkscape-font-specification:Caveat"
           id="flowPara18">8300 módulos</flowPara></flowRoot>      <rect
         y="96.672615"
         x="18.331846"
         height="12.095242"
         width="154.78127"
         id="rect20"
         style="fill:#d4aa00;stroke-width:0.26377934" />
      <ellipse
         ry="2.6458333"
         rx="1.1339285"
         cy="186.25298"
         cx="131.9137"
         id="path22"
         style="fill:#000000;stroke-width:0.26458332" />
      <ellipse
         ry="2.6458333"
         rx="1.1339285"
         cy="185.49702"
         cx="143.25298"
         id="path22-0"
         style="fill:#000000;stroke-width:0.26458332" />
      <path
         sodipodi:nodetypes="cscsc"
         inkscape:connector-curvature="0"
         id="path43"
         d="m 145.1651,195.40671 c 0,0.59031 -2.67036,5.73802 -6.77594,5.73802 -4.10557,0 -8.289,-4.69767 -8.289,-5.28798 0,-0.59031 4.24922,3.82535 8.35479,3.82535 4.10557,0 6.71015,-4.8657 6.71015,-4.27539 z"
         style="fill:#000000;stroke-width:0.24089064" />
      <path
         sodipodi:nodetypes="cscsc"
         inkscape:connector-curvature="0"
         id="path43-1"
         d="m 147.60271,196.60991 c -0.11043,0.10438 -1.55231,0.42546 -2.28865,-0.48026 -0.73635,-0.90572 -0.60789,-2.65923 -0.49746,-2.76361 0.11043,-0.10438 0.0465,1.61379 0.78286,2.51951 0.73634,0.90572 2.11367,0.61998 2.00325,0.72436 z"
         style="fill:#000000;stroke-width:0.06507604" />
      <path
         sodipodi:nodetypes="cscsc"
         inkscape:connector-curvature="0"
         id="path43-1-5"
         d="m 127.97704,196.68907 c 0.11043,0.10438 1.55231,0.42546 2.28865,-0.48026 0.73635,-0.90572 0.60789,-2.65923 0.49746,-2.76361 -0.11043,-0.10438 -0.0465,1.61379 -0.78286,2.51951 -0.73634,0.90572 -2.11367,0.61998 -2.00325,0.72436 z"
         style="fill:#000000;stroke-width:0.06507604" />
      <path
         sodipodi:nodetypes="cccc"
         inkscape:connector-curvature="0"
         id="path91"
         d="m 172.65611,199.98116 c -9.37807,6.31564 -16.31381,7.47317 -16.31381,7.47317 0,0 4.39836,5.2673 3.48487,10.96843 4.41461,-3.88945 9.77478,-6.5233 12.82894,-18.4416 z"
         style="fill:#ffe680;stroke:none;stroke-width:0.26458332px;stroke-linecap:butt;stroke-linejoin:miter;stroke-opacity:1" />
    </g>
    <g
       id="g114"
       inkscape:export-xdpi="96"
       inkscape:export-ydpi="96">
      <rect
         transform="rotate(8.1893086)"
         y="61.06097"
         x="279.18106"
         height="117.21217"
         width="16.074814"
         id="rect108"
         style="fill:#2a7fff;stroke:none;stroke-width:0.26458332" />
      <rect
         transform="matrix(0.9919577,0.12656985,-0.14402764,0.98957367,0,0)"
         y="65.535637"
         x="279.32175"
         height="116.88607"
         width="2.618192"
         id="rect110"
         style="fill:#afdde9;stroke:none;stroke-width:0.25659907" />
    </g>
  </g>
</svg>
