<?xml version="1.0" encoding="UTF-8" standalone="no"?>
<!-- Created with Inkscape (http://www.inkscape.org/) -->

<svg
   xmlns:dc="http://purl.org/dc/elements/1.1/"
   xmlns:cc="http://creativecommons.org/ns#"
   xmlns:rdf="http://www.w3.org/1999/02/22-rdf-syntax-ns#"
   xmlns:svg="http://www.w3.org/2000/svg"
   xmlns="http://www.w3.org/2000/svg"
   xmlns:sodipodi="http://sodipodi.sourceforge.net/DTD/sodipodi-0.dtd"
   xmlns:inkscape="http://www.inkscape.org/namespaces/inkscape"
   id="svg2"
   version="1.1"
   inkscape:version="0.48.5 r10040"
   width="359.16625"
   height="565"
   xml:space="preserve"
   sodipodi:docname="Oficina-elementos.ai"><metadata
     id="metadata8"><rdf:RDF><cc:Work
         rdf:about=""><dc:format>image/svg+xml</dc:format><dc:type
           rdf:resource="http://purl.org/dc/dcmitype/StillImage" /><dc:title></dc:title></cc:Work></rdf:RDF></metadata><defs
     id="defs6"><clipPath
       clipPathUnits="userSpaceOnUse"
       id="clipPath16"><path
         d="m 0,452 287.333,0 0,-452 L 0,0 0,452 z"
         id="path18" /></clipPath><clipPath
       clipPathUnits="userSpaceOnUse"
       id="clipPath44"><path
         d="m 74.7589,419.894 154.9911,0 0,-177.502 -154.9911,0 0,177.502 z"
         id="path46" /></clipPath><clipPath
       clipPathUnits="userSpaceOnUse"
       id="clipPath64"><path
         d="m 95.0973,418.406 140.6617,0 0,-8.709 -140.6617,0 0,8.709 z"
         id="path66" /></clipPath></defs><sodipodi:namedview
     pagecolor="#ffffff"
     bordercolor="#666666"
     borderopacity="1"
     objecttolerance="10"
     gridtolerance="10"
     guidetolerance="10"
     inkscape:pageopacity="0"
     inkscape:pageshadow="2"
     inkscape:window-width="640"
     inkscape:window-height="480"
     id="namedview4"
     showgrid="false"
     inkscape:zoom="0.41769912"
     inkscape:cx="179.58313"
     inkscape:cy="282.5"
     inkscape:window-x="0"
     inkscape:window-y="31"
     inkscape:window-maximized="0"
     inkscape:current-layer="g10" /><g
     id="g10"
     inkscape:groupmode="layer"
     inkscape:label="Oficina-elementos"
     transform="matrix(1.25,0,0,-1.25,0,565)"><g
       id="g12"><g
         id="g14"
         clip-path="url(#clipPath16)"><g
           id="g20"
           transform="translate(191.3604,187.0551)"><path
             d="m 0,0 c -1.077,0 -2.012,0.801 -2.151,1.897 -13.947,109.465 -16.9,135.286 -17.404,141.8 -1.228,-0.531 -2.49,-1.056 -3.659,-1.007 -1.199,0.051 -2.129,1.064 -2.077,2.262 0.05,1.188 1.044,2.115 2.229,2.078 0.359,0.036 1.344,0.462 1.935,0.719 1.752,0.759 3.564,1.545 4.991,0.307 0.459,-0.397 1.148,-1.285 0.807,-2.87 0.043,-2.445 2.454,-24.757 17.486,-142.74 C 2.308,1.256 1.467,0.169 0.277,0.018 0.184,0.006 0.092,0 0,0"
             style="fill:#005a87;fill-opacity:1;fill-rule:nonzero;stroke:none"
             id="path22" /></g><g
           id="g24"
           transform="translate(161.112,205.5879)"><path
             d="m 0,0 -0.014,0 c -1.199,0.007 -2.165,0.985 -2.158,2.184 0.662,109.568 0.943,111.72 1.035,112.427 0.155,1.189 1.246,2.028 2.433,1.873 1.186,-0.155 2.023,-1.238 1.875,-2.423 C 3.013,112.513 2.713,91.822 2.171,2.158 2.164,0.963 1.193,0 0,0"
             style="fill:#005a87;fill-opacity:1;fill-rule:nonzero;stroke:none"
             id="path26" /></g><g
           id="g28"
           transform="translate(117.6438,205.4886)"><path
             d="m 0,0 c -0.115,0 -0.231,0.009 -0.348,0.028 -1.184,0.191 -1.989,1.305 -1.798,2.489 18.017,111.893 18.561,113.146 18.853,113.82 0.478,1.1 1.757,1.605 2.857,1.127 1.051,-0.457 1.559,-1.646 1.184,-2.711 C 20.258,112.917 16.615,91.715 2.141,1.826 1.969,0.76 1.047,0 0,0"
             style="fill:#005a87;fill-opacity:1;fill-rule:nonzero;stroke:none"
             id="path30" /></g><g
           id="g32"
           transform="translate(205.1129,226.1249)"><path
             d="m 0,0 -139.127,0 33.903,192.277 139.128,0 L 0,0 z"
             style="fill:#d87650;fill-opacity:1;fill-rule:nonzero;stroke:none"
             id="path34" /></g><g
           id="g36"
           transform="translate(235.7571,418.4057)"><path
             d="m 0,0 -1.538,-8.708 -21.933,-124.399 -4.731,-26.849 -5.7,-32.326 -139.131,0 32.371,183.574 L -139.124,0 0,0 z"
             style="fill:#ffd9bd;fill-opacity:1;fill-rule:nonzero;stroke:none"
             id="path38" /></g><g
           id="g40"><g
             id="g42" /><g
             id="g48"><g
               clip-path="url(#clipPath44)"
               opacity="0.389999"
               id="g50"><g
                 transform="translate(199.0011,242.3916)"
                 id="g52"><path
                   d="M 0,0 -124.242,0 -93.493,176.728 30.749,177.502 0,0 z"
                   style="fill:#88817f;fill-opacity:1;fill-rule:nonzero;stroke:none"
                   id="path54" /></g></g></g></g><g
           id="g56"
           transform="translate(196.537,245.3485)"><path
             d="M 0,0 -124.242,0 -93.494,176.728 30.749,177.502 0,0 z"
             style="fill:#ffffff;fill-opacity:1;fill-rule:nonzero;stroke:none"
             id="path58" /></g><g
           id="g60"><g
             id="g62" /><g
             id="g68"><g
               clip-path="url(#clipPath64)"
               opacity="0.389999"
               id="g70"><g
                 transform="translate(235.759,418.4057)"
                 id="g72"><path
                   d="m 0,0 -1.538,-8.708 -139.124,0 L -139.124,0 0,0 z"
                   style="fill:#88817f;fill-opacity:1;fill-rule:nonzero;stroke:none"
                   id="path74" /></g></g></g></g><g
           id="g76"
           transform="translate(238.7376,434.7575)"><path
             d="m 0,0 0,-18.658 -142.487,0 0,0.051 c -2.787,0.296 -5.19,1.996 -6.586,4.443 -0.814,1.427 -1.287,3.105 -1.287,4.909 0,1.249 0.229,2.439 0.643,3.533 1.294,3.438 4.436,5.87 8.102,5.87 0.51,0 1.005,-0.059 1.486,-0.148 L 0,0 z"
             style="fill:#41619c;fill-opacity:1;fill-rule:nonzero;stroke:none"
             id="path78" /></g><g
           id="g80"
           transform="translate(190.3013,344.8235)"><path
             d="m 0,0 c -0.105,0 -0.211,0.034 -0.3,0.105 -4.144,3.293 -8.601,6.25 -13.246,8.79 -0.234,0.128 -0.32,0.421 -0.192,0.655 0.128,0.234 0.42,0.319 0.655,0.192 C -8.39,7.175 -3.887,4.187 0.3,0.86 0.509,0.695 0.544,0.391 0.378,0.182 0.283,0.063 0.142,0 0,0"
             style="fill:#00093c;fill-opacity:1;fill-rule:nonzero;stroke:none"
             id="path82" /></g><g
           id="g84"
           transform="translate(191.8021,343.2777)"><path
             d="m 0,0 c -0.015,0 -0.031,0.001 -0.046,0.002 l -3.963,0.384 c -0.266,0.025 -0.46,0.261 -0.434,0.526 0.026,0.266 0.268,0.459 0.526,0.434 l 2.669,-0.258 c -1.373,1.605 -2.31,3.572 -2.678,5.656 -0.046,0.263 0.129,0.513 0.392,0.559 0.262,0.048 0.513,-0.129 0.559,-0.391 C -2.567,4.596 -1.393,2.438 0.329,0.836 0.48,0.695 0.525,0.473 0.44,0.284 0.362,0.11 0.188,0 0,0"
             style="fill:#00093c;fill-opacity:1;fill-rule:nonzero;stroke:none"
             id="path86" /></g><g
           id="g88"
           transform="translate(186.1178,335.428)"><path
             d="m 0,0 c -0.256,0 -0.469,0.201 -0.482,0.459 -0.012,0.266 0.193,0.493 0.459,0.505 l 9.031,0.439 c 1.436,0.07 2.92,0.142 4.379,-0.216 C 13.646,1.124 13.804,0.862 13.741,0.604 13.677,0.345 13.417,0.186 13.157,0.25 11.835,0.574 10.422,0.506 9.056,0.439 L 0.024,0.001 C 0.016,0 0.008,0 0,0"
             style="fill:#00093c;fill-opacity:1;fill-rule:nonzero;stroke:none"
             id="path90" /></g><g
           id="g92"
           transform="translate(185.7703,330.5646)"><path
             d="m 0,0 c -0.256,0 -0.469,0.201 -0.482,0.459 -0.012,0.266 0.193,0.493 0.459,0.505 l 9.031,0.439 c 1.436,0.07 2.92,0.142 4.379,-0.216 C 13.646,1.124 13.804,0.863 13.741,0.604 13.677,0.345 13.418,0.186 13.157,0.25 11.834,0.574 10.421,0.506 9.056,0.439 L 0.024,0.001 C 0.016,0 0.008,0 0,0"
             style="fill:#00093c;fill-opacity:1;fill-rule:nonzero;stroke:none"
             id="path94" /></g><g
           id="g96"
           transform="translate(118.9772,279.8753)"><path
             d="m 0,0 c -2.881,1.033 -6.146,2.203 -8.59,4.453 -2.365,2.177 -4.044,5.465 -4.991,9.774 -0.89,4.053 -0.876,7.494 0.044,10.519 1.133,3.729 3.723,6.623 6.926,7.741 l 0.224,-0.642 c -2.954,-1.031 -5.445,-3.827 -6.499,-7.297 -0.885,-2.911 -0.895,-6.239 -0.03,-10.175 C -12,10.203 -10.39,7.034 -8.129,4.953 -5.787,2.797 -2.591,1.651 0.229,0.64 L 0,0 z"
             style="fill:#ff4141;fill-opacity:1;fill-rule:nonzero;stroke:none"
             id="path98" /></g><g
           id="g100"
           transform="translate(112.1623,305.9842)"><path
             d="M 0,0 C -0.255,1.99 0.052,4.059 0.867,5.894 L -6.58,4.798 -6.679,5.471 2.058,6.757 1.752,6.167 C 0.792,4.315 0.41,2.156 0.675,0.086 L 0,0 z"
             style="fill:#ff4141;fill-opacity:1;fill-rule:nonzero;stroke:none"
             id="path102" /></g><g
           id="g104"
           transform="translate(151.0954,277.9268)"><path
             d="M 0,0 -0.153,0.663 C 18.719,5.036 34.298,21.406 37.734,40.471 L 38.403,40.35 C 34.921,21.026 19.129,4.433 0,0"
             style="fill:#ff4141;fill-opacity:1;fill-rule:nonzero;stroke:none"
             id="path106" /></g><g
           id="g108"
           transform="translate(183.1765,311.0388)"><path
             d="M 0,0 -0.381,0.564 C 2.133,2.26 4.29,4.53 5.857,7.128 L 6.439,6.777 C 4.822,4.095 2.595,1.751 0,0"
             style="fill:#ff4141;fill-opacity:1;fill-rule:nonzero;stroke:none"
             id="path110" /></g><g
           id="g112"
           transform="translate(192.4424,307.3718)"><path
             d="m 0,0 c -0.498,3.256 -1.58,6.356 -3.215,9.216 l 0.59,0.338 C -0.948,6.621 0.161,3.442 0.672,0.103 L 0,0 z"
             style="fill:#fb3535;fill-opacity:1;fill-rule:nonzero;stroke:none"
             id="path114" /></g><g
           id="g116"
           transform="translate(153.2145,362.4514)"><path
             d="m 0,0 c -0.095,-0.479 -0.505,-0.921 -1.044,-1.125 -0.211,-0.079 -0.746,-0.23 -1.172,0.096 -0.071,0.054 -0.149,0.094 -0.231,0.119 L -2.87,1.376 c -0.018,0.575 0.084,0.939 0.307,1.083 0.172,0.112 0.477,0.117 0.835,0.015 C -0.611,2.152 0.197,0.996 0,0 m -8.487,-0.205 c -0.535,-0.952 -1.547,-1.654 -2.641,-1.714 -0.285,-0.016 -0.683,0.006 -0.983,0.193 -0.619,0.389 -0.695,1.445 -0.449,2.288 0.231,0.796 0.786,1.734 1.646,1.977 0.094,0.027 0.194,0.04 0.298,0.04 0.298,0 0.62,-0.108 0.865,-0.301 0.134,-0.105 0.357,-0.328 0.345,-0.636 -0.016,-0.408 0.302,-0.751 0.71,-0.767 0.11,-0.003 0.228,0.018 0.33,0.063 -0.146,-0.342 -0.19,-0.736 -0.121,-1.143 m 7.167,4.1 C -2.07,4.111 -2.771,4.054 -3.305,3.739 -3.324,3.841 -3.345,3.941 -3.364,4.039 -3.443,4.437 -3.833,4.697 -4.228,4.621 -4.627,4.544 -4.889,4.16 -4.816,3.76 l 0.171,-0.919 c 0.116,-0.73 0.168,-1.482 -0.023,-2.152 -0.216,-0.762 -0.952,-1.511 -1.683,-1.417 -0.208,0.027 -0.418,0.196 -0.551,0.427 0.162,0.423 0.261,0.872 0.286,1.333 C -6.6,1.319 -6.751,1.589 -7.004,1.725 -7.257,1.86 -7.565,1.838 -7.796,1.665 -7.843,1.63 -7.888,1.593 -7.93,1.554 c 10e-4,0.01 10e-4,0.021 10e-4,0.031 0.028,0.703 -0.303,1.379 -0.908,1.855 -0.704,0.556 -1.655,0.756 -2.48,0.522 -1.224,-0.346 -2.22,-1.463 -2.663,-2.987 -0.401,-1.378 -0.222,-3.135 1.084,-3.954 0.504,-0.316 1.129,-0.457 1.849,-0.416 1.319,0.071 2.531,0.747 3.355,1.743 0.326,-0.292 0.724,-0.487 1.151,-0.542 0.973,-0.126 1.865,0.333 2.49,1.033 0.387,-2.633 0.923,-5.257 1.599,-7.823 0.087,-0.331 0.386,-0.551 0.714,-0.551 0.054,0 0.109,0.006 0.163,0.018 0.388,0.087 0.637,0.465 0.565,0.856 l -1.114,6.01 c 0.508,-0.106 1.066,-0.06 1.603,0.144 1.021,0.385 1.776,1.236 1.971,2.219 0.35,1.766 -0.893,3.642 -2.77,4.183"
             style="fill:#00abe5;fill-opacity:1;fill-rule:nonzero;stroke:none"
             id="path118" /></g><g
           id="g120"
           transform="translate(160.1145,361.0392)"><path
             d="M 0,0 C -0.154,-1.183 -1.032,-2.227 -2.127,-2.728 -2.599,-0.566 -2.927,1.68 -2.79,3.883 -1.097,3.539 0.224,1.716 0,0 M -2.64,5.359 C -2.754,5.378 -2.887,5.396 -3.031,5.4 -3.127,5.467 -3.24,5.511 -3.364,5.526 -3.719,5.567 -4.041,5.353 -4.151,5.03 -4.601,4.633 -4.708,4.036 -4.756,3.765 -5.169,1.452 -5.007,-0.95 -4.321,-3.191 c -0.15,-0.121 -0.254,-0.3 -0.273,-0.508 -0.038,-0.406 0.262,-0.766 0.668,-0.804 0.026,-0.002 0.051,-0.004 0.076,-0.006 0.352,-0.853 0.783,-1.675 1.29,-2.448 0.14,-0.214 0.376,-0.334 0.618,-0.334 0.101,0 0.204,0.021 0.3,0.064 0.332,0.147 0.507,0.513 0.415,0.863 -0.186,0.708 -0.377,1.436 -0.56,2.177 1.673,0.653 3.018,2.194 3.252,3.996 0.331,2.531 -1.588,5.124 -4.105,5.55"
             style="fill:#00abe5;fill-opacity:1;fill-rule:nonzero;stroke:none"
             id="path122" /></g><g
           id="g124"
           transform="translate(179.5952,361.4652)"><path
             d="m 0,0 c -0.038,-3.354 -2.235,-6.733 -5.733,-8.821 -3.333,-1.988 -7.391,-2.675 -10.921,-3.084 -12.529,-1.451 -22.772,0.242 -30.439,5.031 -1.237,0.773 -2.743,1.853 -3.414,3.358 -0.718,1.61 -0.458,3.528 -0.13,5.354 0.76,4.231 2.957,7.478 6.53,9.652 3.808,2.317 9.021,3.264 14.548,3.264 5.876,0 12.107,-1.07 17.379,-2.7 C -6.517,10.303 0.07,6.095 0,0 m 11.913,19.435 c -0.193,0.144 -0.448,0.184 -0.677,0.107 -0.128,-0.044 -0.262,-0.071 -0.392,-0.11 -0.3,0.267 -0.762,0.245 -1.035,-0.055 C 9.731,19.291 9.65,19.21 9.572,19.125 8.471,18.92 7.343,18.851 6.235,18.951 5.816,18.988 5.469,18.688 5.432,18.282 5.395,17.875 5.694,17.515 6.101,17.479 6.716,17.423 7.336,17.421 7.955,17.45 4.822,14.34 1.314,11.641 -2.516,9.421 -2.769,9.274 -2.897,8.999 -2.876,8.725 c -2.487,2.175 -5.723,3.769 -8.867,4.741 -8.852,2.737 -21.595,4.311 -30.472,0.608 -0.002,0.003 -0.002,0.007 -0.004,0.011 -3.232,4.827 -6.147,9.919 -8.689,15.152 l 4.946,-2.686 c 0.361,-0.195 0.807,-0.062 1.002,0.297 0.195,0.359 0.062,0.808 -0.296,1.003 l -6.809,3.697 c -0.242,0.131 -0.538,0.117 -0.766,-0.036 -0.229,-0.154 -0.353,-0.422 -0.322,-0.696 0.273,-2.436 0.338,-4.911 0.192,-7.356 -0.024,-0.408 0.287,-0.758 0.694,-0.782 0.015,-0.001 0.03,-0.002 0.045,-0.002 0.388,0 0.714,0.303 0.737,0.695 0.071,1.186 0.088,2.379 0.063,3.571 2.341,-4.646 4.97,-9.17 7.848,-13.487 -0.442,-0.224 -0.884,-0.447 -1.302,-0.702 -3.95,-2.403 -6.378,-5.988 -7.216,-10.654 -0.187,-1.043 -0.355,-2.17 -0.342,-3.297 -0.042,0.008 -0.084,0.025 -0.127,0.024 -4.863,-0.13 -9.756,-0.635 -14.546,-1.496 1.347,0.795 2.711,1.575 4.076,2.323 0.359,0.196 0.49,0.645 0.294,1.003 -0.197,0.358 -0.645,0.49 -1.004,0.294 -1.977,-1.084 -3.955,-2.228 -5.878,-3.4 -0.25,-0.152 -0.387,-0.438 -0.348,-0.728 0.038,-0.29 0.243,-0.53 0.524,-0.612 2.771,-0.816 5.538,-1.77 8.224,-2.837 0.089,-0.035 0.182,-0.052 0.273,-0.052 0.293,0 0.571,0.177 0.687,0.467 0.15,0.379 -0.035,0.809 -0.414,0.96 -1.319,0.523 -2.659,1.01 -4.006,1.477 4.021,0.627 8.099,1.015 12.157,1.123 0.075,0.002 0.142,0.025 0.209,0.047 0.092,-0.515 0.237,-1.022 0.456,-1.513 0.834,-1.871 2.565,-3.126 3.981,-4.01 1.555,-0.971 3.209,-1.818 4.961,-2.545 l -5.276,-11.669 c -0.072,0.896 -0.116,1.793 -0.126,2.689 -0.005,0.408 -0.373,0.748 -0.747,0.731 -0.408,-0.005 -0.735,-0.34 -0.731,-0.748 0.028,-2.433 0.279,-4.879 0.745,-7.27 0.056,-0.287 0.276,-0.514 0.561,-0.579 0.055,-0.013 0.11,-0.019 0.164,-0.019 0.23,0 0.451,0.108 0.592,0.297 1.001,1.337 2.441,2.308 4.055,2.734 0.395,0.104 0.631,0.508 0.527,0.903 -0.104,0.395 -0.512,0.631 -0.903,0.526 -1.423,-0.375 -2.733,-1.104 -3.803,-2.1 0,0.002 -10e-4,0.004 -10e-4,0.006 0.01,0.018 0.025,0.033 0.034,0.053 l 6.288,13.909 c 4.839,-1.78 10.373,-2.676 16.564,-2.676 2.045,0 4.162,0.098 6.347,0.293 l 5.485,-14.937 c -0.991,0.6 -1.918,1.312 -2.735,2.117 -0.291,0.287 -0.759,0.282 -1.046,-0.008 -0.286,-0.291 -0.282,-0.759 0.009,-1.046 1.459,-1.437 3.155,-2.574 5.038,-3.38 0.093,-0.04 0.192,-0.06 0.291,-0.06 0.149,0 0.296,0.045 0.422,0.132 0.209,0.145 0.328,0.388 0.316,0.642 -0.103,2.181 0.125,4.358 0.679,6.47 0.103,0.395 -0.133,0.799 -0.528,0.902 -0.396,0.103 -0.799,-0.133 -0.903,-0.528 -0.299,-1.142 -0.498,-2.302 -0.618,-3.472 l -4.892,13.324 c 0.209,0.022 0.413,0.039 0.623,0.063 3.686,0.428 7.935,1.152 11.509,3.284 3.936,2.349 6.409,6.208 6.453,10.073 0.037,3.194 -1.421,5.885 -3.626,8.06 0,0 0.002,-10e-4 0.004,-10e-4 0.126,0 0.253,0.033 0.37,0.1 4.489,2.602 8.549,5.842 12.094,9.623 0.127,0.028 0.255,0.047 0.381,0.079 l -0.134,-4.146 c -0.013,-0.408 0.307,-0.75 0.715,-0.763 0.008,0 0.016,0 0.025,0 0.397,0 0.725,0.315 0.737,0.715 l 0.167,5.167 c 0.008,0.243 -0.103,0.473 -0.298,0.618"
             style="fill:#00abe5;fill-opacity:1;fill-rule:nonzero;stroke:none"
             id="path126" /></g><g
           id="g128"
           transform="translate(202.8645,386.6053)"><path
             d="m 0,0 c -3.451,-0.419 -6.898,-0.512 -10.367,-0.28 -1.425,0.096 -1.419,-2.122 0,-2.218 C -6.898,-2.73 -3.451,-2.637 0,-2.218 1.399,-2.048 1.416,0.172 0,0"
             style="fill:#00abe5;fill-opacity:1;fill-rule:nonzero;stroke:none"
             id="path130" /></g><g
           id="g132"
           transform="translate(212.798,386.3634)"><path
             d="M 0,0 C -0.173,0.626 -0.772,0.875 -1.364,0.775 -2.35,0.608 -3.335,0.441 -4.32,0.275 c -0.591,-0.1 -0.922,-0.829 -0.775,-1.364 0.172,-0.626 0.772,-0.875 1.365,-0.775 0.985,0.167 1.97,0.333 2.955,0.5 C -0.184,-1.264 0.147,-0.535 0,0"
             style="fill:#00abe5;fill-opacity:1;fill-rule:nonzero;stroke:none"
             id="path134" /></g><g
           id="g136"
           transform="translate(211.3599,394.3059)"><path
             d="m 0,0 c -6.412,-1.828 -13.109,0.646 -19.673,-1.117 -1.377,-0.37 -0.793,-2.509 0.589,-2.138 6.568,1.763 13.199,-0.73 19.674,1.116 C 1.96,-1.748 1.377,0.393 0,0"
             style="fill:#00abe5;fill-opacity:1;fill-rule:nonzero;stroke:none"
             id="path138" /></g><g
           id="g140"
           transform="translate(125.5697,396.4601)"><path
             d="M 0,0 C 0.761,0.393 1.341,0.873 1.826,1.48 3.033,0.771 3.41,1.214 5.48,1.414 c 2.325,0.225 4.596,-0.12 6.81,-0.836 1.361,-0.44 1.944,1.7 0.59,2.138 C 11.063,3.304 9.196,3.679 7.281,3.702 5.533,3.723 3.54,2.889 2.081,3.984 1.616,4.333 0.819,4.071 0.565,3.586 0.253,2.777 -0.308,2.22 -1.12,1.915 -2.388,1.26 -1.268,-0.655 0,0"
             style="fill:#00abe5;fill-opacity:1;fill-rule:nonzero;stroke:none"
             id="path142" /></g><g
           id="g144"
           transform="translate(155.9816,400.9339)"><path
             d="m 0,0 c -3.424,-0.395 -6.855,-0.626 -10.301,-0.693 -1.425,-0.027 -1.43,-2.245 0,-2.217 C -6.855,-2.844 -3.424,-2.613 0,-2.218 1.401,-2.056 1.417,0.164 0,0"
             style="fill:#00abe5;fill-opacity:1;fill-rule:nonzero;stroke:none"
             id="path146" /></g><g
           id="g148"
           transform="translate(124.9872,404.5749)"><path
             d="m 0,0 c 10.345,0.576 20.689,1.152 31.034,1.728 1.419,0.079 1.429,2.297 0,2.218 C 20.689,3.37 10.345,2.794 0,2.218 -1.419,2.139 -1.428,-0.08 0,0"
             style="fill:#00abe5;fill-opacity:1;fill-rule:nonzero;stroke:none"
             id="path150" /></g><g
           id="g152"
           transform="translate(106.7431,364.6185)"><path
             d="m 0,0 c -2.744,0.011 -5.456,-0.216 -8.165,-0.649 -1.405,-0.225 -0.809,-2.362 0.589,-2.139 2.512,0.402 5.033,0.58 7.576,0.57 C 1.427,-2.223 1.429,-0.006 0,0"
             style="fill:#00abe5;fill-opacity:1;fill-rule:nonzero;stroke:none"
             id="path154" /></g><g
           id="g156"
           transform="translate(106.2226,361.0186)"><path
             d="m 0,0 c -1.01,0.409 -2.384,-0.012 -3.415,-0.18 -1.612,-0.263 -3.197,-0.634 -4.766,-1.082 -1.37,-0.392 -0.787,-2.532 0.589,-2.139 1.108,0.316 2.222,0.599 3.351,0.826 0.504,0.102 1.712,0.48 2.614,0.545 0.069,-0.354 0.306,-0.67 0.76,-0.794 C 0.936,-3.318 1.72,-0.697 0,0"
             style="fill:#00abe5;fill-opacity:1;fill-rule:nonzero;stroke:none"
             id="path158" /></g><g
           id="g160"
           transform="translate(100.8285,355.2307)"><path
             d="m 0,0 -2.464,0 c -1.427,0 -1.429,-2.218 0,-2.218 l 2.464,0 C 1.427,-2.218 1.429,0 0,0"
             style="fill:#00abe5;fill-opacity:1;fill-rule:nonzero;stroke:none"
             id="path162" /></g><g
           id="g164"
           transform="translate(138.764,330.8534)"><path
             d="m 0,0 c -7.065,0.354 -14.126,0.41 -21.195,0.168 -1.424,-0.049 -1.43,-2.267 0,-2.218 C -14.126,-1.808 -7.065,-1.864 0,-2.218 1.427,-2.289 1.422,-0.071 0,0"
             style="fill:#00abe5;fill-opacity:1;fill-rule:nonzero;stroke:none"
             id="path166" /></g><g
           id="g168"
           transform="translate(129.4139,326.3994)"><path
             d="m 0,0 -11.83,-0.058 c -1.427,-0.007 -1.43,-2.225 0,-2.218 L 0,-2.218 C 1.426,-2.211 1.429,0.007 0,0"
             style="fill:#00abe5;fill-opacity:1;fill-rule:nonzero;stroke:none"
             id="path170" /></g><g
           id="g172"
           transform="translate(161.4457,327.3862)"><path
             d="m 0,0 c 1.427,0 1.429,2.218 0,2.218 l -2.464,0 C -3.891,2.218 -3.893,0 -2.464,0 L 0,0 z"
             style="fill:#00abe5;fill-opacity:1;fill-rule:nonzero;stroke:none"
             id="path174" /></g><g
           id="g176"
           transform="translate(178.2243,329.326)"><path
             d="m 0,0 c -4.235,0.401 -8.41,0.243 -12.61,-0.417 -1.407,-0.22 -0.81,-2.358 0.589,-2.138 C -8.023,-1.927 -4.026,-1.836 0,-2.218 1.42,-2.352 1.411,-0.134 0,0"
             style="fill:#00abe5;fill-opacity:1;fill-rule:nonzero;stroke:none"
             id="path178" /></g><g
           id="g180"
           transform="translate(175.2378,324.073)"><path
             d="m 0,0 c -5.245,0.338 -10.491,0.675 -15.737,1.013 -1.425,0.091 -1.419,-2.127 0,-2.218 C -10.491,-1.543 -5.245,-1.88 0,-2.218 1.425,-2.309 1.419,-0.091 0,0"
             style="fill:#00abe5;fill-opacity:1;fill-rule:nonzero;stroke:none"
             id="path182" /></g><g
           id="g184"
           transform="translate(122.22,289.1472)"><path
             d="m 0,0 c -1.326,-0.493 -0.752,-2.637 0.59,-2.138 1.986,0.737 3.993,1.057 6.11,0.96 1.427,-0.066 1.424,2.152 0,2.217 C 4.404,1.145 2.156,0.801 0,0"
             style="fill:#00abe5;fill-opacity:1;fill-rule:nonzero;stroke:none"
             id="path186" /></g><g
           id="g188"
           transform="translate(133.3245,290.3968)"><path
             d="m 0,0 c -1.398,-0.175 -1.415,-2.395 0,-2.218 3.254,0.409 6.426,0.198 9.591,-0.676 1.378,-0.381 1.965,1.758 0.589,2.138 C 6.834,0.169 3.446,0.433 0,0"
             style="fill:#00abe5;fill-opacity:1;fill-rule:nonzero;stroke:none"
             id="path190" /></g><g
           id="g192"
           transform="translate(148.1525,287.9334)"><path
             d="M 0,0 C 0.022,0.001 0.212,0.064 0.216,0.065 0.331,0.097 0.559,0.072 0.671,0.044 1.251,-0.105 1.875,0.234 2.036,0.818 2.192,1.389 1.843,2.033 1.261,2.182 0.154,2.466 -0.933,2.174 -1.791,1.436 c -0.454,-0.391 -0.401,-1.167 0,-1.568 0.45,-0.45 1.113,-0.392 1.569,0 -0.075,-0.047 -0.057,-0.034 0.055,0.04 C -0.113,-0.058 -0.057,-0.029 0,0"
             style="fill:#00abe5;fill-opacity:1;fill-rule:nonzero;stroke:none"
             id="path194" /></g><g
           id="g196"
           transform="translate(151.3129,286.0098)"><path
             d="m 0,0 c -9.389,-2.121 -18.931,-1 -28.416,-0.296 -1.423,0.106 -1.417,-2.112 0,-2.217 9.7,-0.72 19.41,-1.793 29.005,0.375 C 1.981,-1.824 1.392,0.314 0,0"
             style="fill:#00abe5;fill-opacity:1;fill-rule:nonzero;stroke:none"
             id="path198" /></g><g
           id="g200"
           transform="translate(133.7425,280.076)"><path
             d="m 0,0 c -3.803,1.136 -7.675,1.178 -11.504,0.139 -1.376,-0.373 -0.792,-2.513 0.589,-2.138 3.466,0.939 6.885,0.888 10.325,-0.14 C 0.781,-2.548 1.367,-0.408 0,0"
             style="fill:#00abe5;fill-opacity:1;fill-rule:nonzero;stroke:none"
             id="path202" /></g><g
           id="g204"
           transform="translate(143.2117,279.8288)"><path
             d="m 0,0 -4.928,0 c -1.428,0 -1.43,-2.218 0,-2.218 l 4.928,0 C 1.426,-2.218 1.429,0 0,0"
             style="fill:#00abe5;fill-opacity:1;fill-rule:nonzero;stroke:none"
             id="path206" /></g><g
           id="g208"
           transform="translate(238.7376,429.0358)"><path
             d="m 0,0 0,-8.442 -149.073,0 c -0.814,1.427 -1.287,3.105 -1.287,4.908 0,1.25 0.229,2.44 0.643,3.534 L 0,0 z"
             style="fill:#214f8c;fill-opacity:1;fill-rule:nonzero;stroke:none"
             id="path210" /></g><g
           id="g212"
           transform="translate(214.0652,18.1544)"><path
             d="m 0,0 c -1.064,0 -1.994,0.783 -2.147,1.868 -0.121,0.856 -12.221,86.604 -22.709,168.93 -0.152,1.19 0.69,2.277 1.879,2.428 1.193,0.151 2.277,-0.689 2.429,-1.879 C -10.064,89.051 2.032,3.332 2.153,2.475 2.32,1.288 1.494,0.189 0.306,0.022 0.204,0.007 0.101,0 0,0"
             style="fill:#a3a8c1;fill-opacity:1;fill-rule:nonzero;stroke:none"
             id="path214" /></g><g
           id="g216"
           transform="translate(160.0927,18.8232)"><path
             d="m 0,0 -0.011,0 c -1.199,0.006 -2.167,0.983 -2.161,2.182 0.005,0.983 0.491,99.305 1.02,186.767 0.007,1.195 0.978,2.158 2.171,2.158 l 0.013,0 C 2.231,191.1 3.198,190.122 3.19,188.923 2.662,101.464 2.176,3.144 2.171,2.161 2.165,0.965 1.194,0 0,0"
             style="fill:#a3a8c1;fill-opacity:1;fill-rule:nonzero;stroke:none"
             id="path218" /></g><g
           id="g220"
           transform="translate(87.793,18.8228)"><path
             d="m 0,0 c -0.113,0 -0.228,0.009 -0.344,0.027 -1.184,0.189 -1.991,1.301 -1.803,2.486 0.162,1.017 16.325,102.669 29.851,186.67 0.191,1.183 1.304,1.989 2.489,1.798 1.184,-0.19 1.99,-1.305 1.799,-2.489 C 18.467,104.496 2.303,2.848 2.142,1.831 1.972,0.762 1.049,0 0,0"
             style="fill:#a3a8c1;fill-opacity:1;fill-rule:nonzero;stroke:none"
             id="path222" /></g><g
           id="g224"
           transform="translate(90.2996,431.3718)"><path
             d="m 0,0 147.411,0 0,-5.175 -149.303,0 L 0,0 z"
             style="fill:#5682c5;fill-opacity:1;fill-rule:nonzero;stroke:none"
             id="path226" /></g><g
           id="g228"
           transform="translate(245.5855,425.5018)"><path
             d="m 0,0 c 0,-5.192 -3.915,-9.401 -8.745,-9.401 -4.83,0 -8.745,4.209 -8.745,9.401 0,5.192 3.915,9.401 8.745,9.401 C -3.915,9.401 0,5.192 0,0"
             style="fill:#00093c;fill-opacity:1;fill-rule:nonzero;stroke:none"
             id="path230" /></g><g
           id="g232"
           transform="translate(236.8405,421.5313)"><path
             d="m 0,0 c -1.946,0 -3.529,1.781 -3.529,3.971 0,2.189 1.583,3.97 3.529,3.97 1.946,0 3.529,-1.781 3.529,-3.97 C 3.529,1.781 1.946,0 0,0"
             style="fill:#41619c;fill-opacity:1;fill-rule:nonzero;stroke:none"
             id="path234" /></g><g
           id="g236"
           transform="translate(203.65,225.9815)"><path
             d="m 0,0 -152.613,0 1.107,6.279 152.613,0 L 0,0 z"
             style="fill:#41619c;fill-opacity:1;fill-rule:nonzero;stroke:none"
             id="path238" /></g><g
           id="g240"
           transform="translate(198.2075,232.1697)"><path
             d="M 0,0 2.184,-5.46 8.992,-6.188 9.1,0 0,0 z"
             style="fill:#00093c;fill-opacity:1;fill-rule:nonzero;stroke:none"
             id="path242" /></g></g></g></g></svg>