<?xml version="1.0" encoding="UTF-8" standalone="no"?>
<!-- Generator: Adobe Illustrator 19.0.0, SVG Export Plug-In . SVG Version: 6.00 Build 0)  -->

<svg
   xmlns:dc="http://purl.org/dc/elements/1.1/"
   xmlns:cc="http://creativecommons.org/ns#"
   xmlns:rdf="http://www.w3.org/1999/02/22-rdf-syntax-ns#"
   xmlns:svg="http://www.w3.org/2000/svg"
   xmlns="http://www.w3.org/2000/svg"
   xmlns:sodipodi="http://sodipodi.sourceforge.net/DTD/sodipodi-0.dtd"
   xmlns:inkscape="http://www.inkscape.org/namespaces/inkscape"
   version="1.1"
   id="Layer_1"
   x="0px"
   y="0px"
   viewBox="0 0 512 512"
   style="enable-background:new 0 0 512 512;"
   xml:space="preserve"
   sodipodi:docname="telephone.svg"
   inkscape:version="0.92.1 r15371"><metadata
     id="metadata49"><rdf:RDF><cc:Work
         rdf:about=""><dc:format>image/svg+xml</dc:format><dc:type
           rdf:resource="http://purl.org/dc/dcmitype/StillImage" /><dc:title></dc:title></cc:Work></rdf:RDF></metadata><defs
     id="defs47" /><sodipodi:namedview
     pagecolor="#ffffff"
     bordercolor="#666666"
     borderopacity="1"
     objecttolerance="10"
     gridtolerance="10"
     guidetolerance="10"
     inkscape:pageopacity="0"
     inkscape:pageshadow="2"
     inkscape:window-width="640"
     inkscape:window-height="480"
     id="namedview45"
     showgrid="false"
     inkscape:zoom="0.4609375"
     inkscape:cx="256"
     inkscape:cy="256"
     inkscape:window-x="0"
     inkscape:window-y="24"
     inkscape:window-maximized="0"
     inkscape:current-layer="Layer_1" /><g
     id="g6"><path
       style="fill:#74E7E7;"
       d="M256,512c104.834,0,171.804-30.317,171.804-102.4L256,386.844L84.196,409.6   C84.196,481.683,151.166,512,256,512z"
       id="path2" /><path
       style="fill:#74E7E7;"
       d="M427.804,79.644C427.804,7.562,360.834,0,256,0S84.196,7.562,84.196,79.644V102.4L256,125.156   L427.804,102.4V79.644z"
       id="path4" /></g><circle
     style="fill:#06344C;"
     cx="324.836"
     cy="50.062"
     r="8.533"
     id="circle8" /><path
     style="fill:#4CCAED;"
     d="M290.133,59.733h-68.267c-4.713,0-8.533-3.82-8.533-8.533s3.821-8.533,8.533-8.533h68.267  c4.713,0,8.533,3.82,8.533,8.533S294.846,59.733,290.133,59.733z"
     id="path10" /><rect
     x="84.196"
     y="102.4"
     style="fill:#06344C;"
     width="343.609"
     height="307.2"
     id="rect12" /><g
     id="g14" /><g
     id="g16" /><g
     id="g18" /><g
     id="g20" /><g
     id="g22" /><g
     id="g24" /><g
     id="g26" /><g
     id="g28" /><g
     id="g30" /><g
     id="g32" /><g
     id="g34" /><g
     id="g36" /><g
     id="g38" /><g
     id="g40" /><g
     id="g42" /></svg>